HIERARCHY
ROOT SpineBase
{
  OFFSET 0.000000 0.000000 0.000000
  CHANNELS 6 Xposition Yposition Zposition Zrotation Xrotation Yrotation
  JOINT SpineMid
  {
    OFFSET 0.000000 30.734523 0.000000
    CHANNELS 3 Zrotation Xrotation Yrotation
    JOINT SpineShoulder
    {
      OFFSET 0.254471 22.884322 -0.561623
      CHANNELS 3 Zrotation Xrotation Yrotation
      JOINT Neck
      {
        OFFSET 0.143834 7.584573 -0.454282
        CHANNELS 3 Zrotation Xrotation Yrotation
        JOINT Head
        {
          OFFSET 1.313307 8.334700 5.214987
          CHANNELS 3 Zrotation Xrotation Yrotation
          End Site
          {
            OFFSET 0 0 0
          }
        }
      }
      JOINT ShoulderLeft
      {
        OFFSET -1.959851 -3.788361 -10.556306
        CHANNELS 3 Zrotation Xrotation Yrotation
        JOINT ElbowLeft
        {
          OFFSET 1.155227 -21.703573 -5.274791
          CHANNELS 3 Zrotation Xrotation Yrotation
          JOINT WristLeft
          {
            OFFSET 4.979204 -21.450352 -1.920146
            CHANNELS 3 Zrotation Xrotation Yrotation
            JOINT HandLeft
            {
              OFFSET 1.132014 -11.147053 1.133847
              CHANNELS 3 Zrotation Xrotation Yrotation
              JOINT HandTipLeft
              {
                OFFSET 3.630153 -5.270282 -0.133550
                CHANNELS 3 Zrotation Xrotation Yrotation
                End Site
                {
                  OFFSET 0 0 0
                }
              }
              JOINT ThumbLeft
              {
                OFFSET -4.056306 -1.262237 0.704255
                CHANNELS 3 Zrotation Xrotation Yrotation
                End Site
                {
                  OFFSET 0 0 0
                }
              }
            }
          }
        }
      }
      JOINT ShoulderRight
      {
        OFFSET 8.340458 -5.504697 12.477649
        CHANNELS 3 Zrotation Xrotation Yrotation
        JOINT ElbowRight
        {
          OFFSET 3.032344 -19.007341 -7.654557
          CHANNELS 3 Zrotation Xrotation Yrotation
          JOINT WristRight
          {
            OFFSET 1.114552 -19.364092 9.361473
            CHANNELS 3 Zrotation Xrotation Yrotation
            JOINT HandRight
            {
              OFFSET -0.853617 -19.258893 4.779495
              CHANNELS 3 Zrotation Xrotation Yrotation
              JOINT HandTipRight
              {
                OFFSET 2.117581 -3.309341 0.403942
                CHANNELS 3 Zrotation Xrotation Yrotation
                End Site
                {
                  OFFSET 0 0 0
                }
              }
              JOINT ThumbRight
              {
                OFFSET 2.658230 -1.986241 -0.481141
                CHANNELS 3 Zrotation Xrotation Yrotation
                End Site
                {
                  OFFSET 0 0 0
                }
              }
            }
          }
        }
      }
    }
  }
  JOINT HipLeft
  {
    OFFSET -1.355641 1.960938 -4.152530
    CHANNELS 3 Zrotation Xrotation Yrotation
    JOINT KneeLeft
    {
      OFFSET -4.926521 -33.926200 -6.007484
      CHANNELS 3 Zrotation Xrotation Yrotation
      JOINT AnkleLeft
      {
        OFFSET -6.628743 -30.363754 0.807165
        CHANNELS 3 Zrotation Xrotation Yrotation
        JOINT FootLeft
        {
          OFFSET 7.758061 -2.462496 -6.004520
          CHANNELS 3 Zrotation Xrotation Yrotation
          End Site
          {
            OFFSET 0 0 0
          }
        }
      }
    }
  }
  JOINT HipRight
  {
    OFFSET 2.522260 -0.105900 -0.493063
    CHANNELS 3 Zrotation Xrotation Yrotation
    JOINT KneeRight
    {
      OFFSET -0.052264 -37.036310 4.060839
      CHANNELS 3 Zrotation Xrotation Yrotation
      JOINT AnkleRight
      {
        OFFSET -8.489302 -28.305003 -1.036167
        CHANNELS 3 Zrotation Xrotation Yrotation
        JOINT FootRight
        {
          OFFSET 9.840101 -1.393238 -8.220443
          CHANNELS 3 Zrotation Xrotation Yrotation
          End Site
          {
            OFFSET 0 0 0
          }
        }
      }
    }
  }
}
MOTION
Frames: 11
Frame Time: 0.033333
-42.166635 68.558804 314.751870 -5.430492 -3.781092 -60.154085 0.663758 0.471741 59.862462 0.254218 -0.144187 -0.129536 -3.384545 0.676711 5.861672 0.000000 0.000000 0.000000 -10.839081 -0.298745 4.107717 14.406191 8.225080 -2.702518 12.188591 8.794508 0.938822 -18.317764 6.356248 9.770741 0.000000 0.000000 0.000000 0.000000 0.000000 0.000000 4.144385 5.710223 0.379698 0.266509 -1.430866 -0.333839 -0.000000 0.000000 0.000000 -0.000000 0.000000 0.000000 0.000000 0.000000 0.000000 0.000000 0.000000 0.000000 22.589793 36.551700 44.219490 -21.175437 14.288075 1.220696 -51.422904 -34.414410 -30.817825 0.000000 0.000000 0.000000 -13.186869 -7.231634 57.904076 5.891215 -2.197839 1.929459 -1.044928 -12.764911 0.975101 0.000000 0.000000 0.000000
-38.516588 68.175983 313.408489 -5.338327 -3.548982 -65.245130 0.531476 0.400715 64.971578 0.238770 -0.057873 -0.131944 -3.553500 -1.139386 6.185111 0.000000 0.000000 0.000000 -15.660850 -2.311494 5.067082 13.557790 10.864606 -2.515498 17.025629 10.921051 0.647357 -22.381954 3.776142 9.364406 0.000000 0.000000 0.000000 0.000000 0.000000 0.000000 4.231949 3.154422 0.038976 3.623813 -0.323373 1.552487 -0.131927 0.697280 -0.753483 -0.992920 -0.666889 -1.220848 0.000000 0.000000 0.000000 0.000000 0.000000 0.000000 17.853518 36.175955 51.658863 -15.255224 15.262331 0.394781 -48.901035 -32.551725 -29.529243 0.000000 0.000000 0.000000 -12.684029 -11.124422 62.327114 6.756774 -2.045287 2.432478 0.410967 -12.371419 4.474774 0.000000 0.000000 0.000000
-34.214538 66.163148 310.711084 -4.571523 -2.436260 -66.203840 0.500304 0.520589 66.014454 0.336005 0.086980 -0.102937 -5.568749 -4.706516 6.981253 0.000000 0.000000 0.000000 -20.310403 -3.903883 5.489827 16.104570 10.824076 -3.234494 17.354488 12.857610 0.599316 -24.858351 -0.242119 6.558653 0.000000 0.000000 0.000000 0.000000 0.000000 0.000000 5.792173 -6.332462 -2.240389 0.167962 8.084539 3.448346 0.518353 -1.066894 -0.341194 -1.828957 1.099900 -1.245004 0.000000 0.000000 0.000000 0.000000 0.000000 0.000000 19.465253 32.383630 53.962464 -11.874107 19.305491 -1.112687 -50.751380 -32.998773 -31.525942 0.000000 0.000000 0.000000 -10.638064 -17.364010 62.259409 8.264840 0.438389 3.283971 3.522764 -11.055945 7.363845 0.000000 0.000000 0.000000
-29.210409 63.440219 306.643286 -3.247157 -0.777566 -62.895675 0.514566 0.176777 62.802286 0.208896 -0.095929 -0.081759 -3.905562 -4.453803 5.039702 0.000000 0.000000 0.000000 -23.183117 -5.113537 5.410223 20.545431 9.530479 -4.506718 12.933230 9.195376 0.431683 -29.309118 -0.656839 4.308394 0.000000 0.000000 0.000000 0.000000 0.000000 0.000000 3.471752 -11.117592 -2.229055 -3.092879 13.356417 2.197204 1.189566 -2.389372 0.677860 -1.819618 1.745235 0.127666 0.000000 0.000000 0.000000 0.000000 0.000000 0.000000 26.198282 26.004381 51.635919 -14.591599 25.885284 -2.114446 -50.613996 -34.842032 -36.873317 0.000000 0.000000 0.000000 -8.191004 -26.983463 57.503476 12.581729 6.214268 4.380169 4.924033 -10.106328 5.495897 0.000000 0.000000 0.000000
-25.876108 56.273133 303.429940 -1.189079 0.337391 -54.530280 0.477524 -0.185937 54.505448 0.107031 -0.274145 -0.027163 -4.540701 -6.874626 4.476826 0.000000 0.000000 0.000000 -20.251768 -2.157860 4.872504 29.107062 2.173022 -5.632331 -2.683664 2.997065 1.011435 -26.397338 0.527139 2.482372 0.000000 0.000000 0.000000 0.000000 0.000000 0.000000 -3.018532 -4.749502 0.687203 -5.255013 11.899860 -3.823884 2.622784 -4.481864 2.270481 0.120623 6.008823 6.756035 0.000000 0.000000 0.000000 0.000000 0.000000 0.000000 32.210591 20.602069 43.726080 -22.405225 27.843057 -0.305511 -51.818400 -36.482895 -39.678777 0.000000 0.000000 0.000000 -10.676248 -38.422754 46.286084 16.696677 14.147091 5.412573 -1.564542 -16.817648 3.903628 0.000000 0.000000 0.000000
-22.424112 51.149859 301.047724 0.071298 0.815296 -38.718697 0.454356 -0.680706 38.720888 -0.000000 0.000000 0.000000 -6.401291 -7.127752 4.879197 0.000000 0.000000 0.000000 -17.395770 1.282071 4.547287 39.759040 -6.362651 -4.714398 -18.622395 -10.588555 2.268985 -26.380774 12.952381 8.709850 0.000000 0.000000 0.000000 0.000000 0.000000 0.000000 -8.923930 -0.623927 3.503079 -10.208085 14.857629 -10.473052 4.083910 -7.154119 4.224776 6.209170 1.965551 8.772689 0.000000 0.000000 0.000000 0.000000 0.000000 0.000000 36.907355 12.426652 29.483199 -31.868260 24.407894 2.914676 -47.685991 -35.907982 -38.613853 0.000000 0.000000 0.000000 -26.504955 -43.758678 22.540656 21.408968 19.131688 5.883913 -3.458158 -18.647158 6.934385 0.000000 0.000000 0.000000
-19.767914 48.131279 299.914929 0.474901 0.417910 -17.332585 -0.328850 -0.540404 17.329302 -0.000000 0.000000 0.000000 -7.318463 -4.948111 5.132549 0.000000 0.000000 0.000000 -15.112900 3.743439 4.384532 48.319440 -12.636036 -2.564990 -35.912690 -23.199031 2.218043 -25.163492 27.651542 20.171582 0.000000 0.000000 0.000000 0.000000 0.000000 0.000000 -12.235155 1.247316 5.342902 -18.090627 21.975345 -15.458690 9.282081 -8.230511 8.237682 -11.542156 -6.044023 3.485751 0.000000 0.000000 0.000000 0.000000 0.000000 0.000000 37.233923 0.354646 11.980208 -36.174576 22.824996 3.854058 -50.741734 -36.284786 -48.629912 0.000000 0.000000 0.000000 -46.312574 -35.759824 -4.104785 25.441501 23.348736 5.535739 -2.147115 -19.259267 13.318625 0.000000 0.000000 0.000000
-17.288642 47.586280 299.388725 -0.582464 0.226555 -5.299192 -0.183373 -0.551431 5.279670 -0.104527 -0.455552 -0.027440 -6.374527 -2.564040 5.053583 0.000000 0.000000 0.000000 -14.223638 5.769639 4.849151 51.972077 -15.023072 -1.257587 -44.659531 -22.955315 1.908185 -23.888888 26.124199 20.636367 0.000000 0.000000 0.000000 0.000000 0.000000 0.000000 -12.263723 1.563036 5.849778 -30.667358 34.600217 -15.587593 12.920724 -5.689073 13.601319 -32.454314 -14.380356 -10.532481 0.000000 0.000000 0.000000 0.000000 0.000000 0.000000 35.177258 -5.222353 1.785077 -36.408129 20.413441 3.821234 -48.422809 -36.111456 -47.437032 0.000000 0.000000 0.000000 -53.384795 -26.884177 -14.704486 28.178996 23.882646 5.239144 2.448423 -16.131874 21.106496 0.000000 0.000000 0.000000
-15.298923 49.500965 299.835335 -2.415315 -0.294236 -0.916221 -0.780017 -0.650367 0.825890 -0.383009 -0.391936 -0.130530 -2.352607 0.870783 4.027922 0.000000 0.000000 0.000000 -12.613250 6.376949 5.450348 46.707481 -13.358657 -2.039255 -40.268520 -16.603563 1.112996 -24.277071 17.601029 15.141574 0.000000 0.000000 0.000000 0.000000 0.000000 0.000000 -8.511886 0.172462 5.118712 -40.792971 39.517909 -12.791895 12.264472 -2.769864 16.436538 -36.117815 -18.490564 -20.277472 0.000000 0.000000 0.000000 0.000000 0.000000 0.000000 33.536551 -5.187471 -2.682121 -32.703908 17.149964 3.080676 -43.793404 -35.828044 -34.993098 0.000000 0.000000 0.000000 -52.391853 -20.627906 -15.809243 28.891434 20.708026 5.266181 7.735998 -10.003464 26.803491 0.000000 0.000000 0.000000
-14.453472 53.995494 300.751301 -6.203648 -0.695461 -1.881870 -0.398155 -0.774242 1.656409 -0.303456 -0.396655 -0.253241 2.953407 4.856437 2.452473 0.000000 0.000000 0.000000 -10.004153 6.618934 5.900012 32.676182 -9.214646 -3.256064 -26.763665 -9.730907 -0.763495 -23.040124 12.059135 12.162564 0.000000 0.000000 0.000000 0.000000 0.000000 0.000000 -1.106898 -2.212114 2.907370 -50.002358 37.988951 -9.425607 10.461644 -0.947613 17.127315 -29.176851 -23.465394 -24.327672 0.000000 0.000000 0.000000 0.000000 0.000000 0.000000 33.390890 -2.645402 -2.196328 -24.830102 14.564057 2.014264 -36.908775 -33.281083 -12.280287 0.000000 0.000000 0.000000 -44.383829 -16.955059 -11.562094 27.193841 15.495161 5.423181 11.947035 -3.198008 28.676206 0.000000 0.000000 0.000000
-13.991058 59.443841 300.981090 -10.091287 -0.483298 -4.428015 0.426072 -0.877845 4.083378 0.019002 -0.348314 -0.354908 6.191828 7.755138 1.859999 0.000000 0.000000 0.000000 -9.349676 5.516483 6.487960 18.503732 -3.609539 -3.520760 -11.088316 -5.986587 -2.813766 -25.409290 8.780639 12.417072 0.000000 0.000000 0.000000 0.000000 0.000000 0.000000 8.955279 -10.474392 -1.377033 -59.466969 31.909134 -2.042311 10.880024 -0.921037 16.261510 -23.598608 -22.689718 -22.878680 0.000000 0.000000 0.000000 0.000000 0.000000 0.000000 33.309780 -0.968970 0.521345 -16.223459 12.612961 1.284760 -28.641740 -24.178926 13.438952 0.000000 0.000000 0.000000 -33.787235 -14.589992 -6.134411 22.322142 10.223172 5.761906 12.536512 -1.472501 33.528782 0.000000 0.000000 0.000000
